<?xml version="1.0" standalone="no"?>
<!DOCTYPE svg PUBLIC "-//W3C//DTD SVG 20010904//EN"
 "http://www.w3.org/TR/2001/REC-SVG-20010904/DTD/svg10.dtd">
<svg version="1.0" xmlns="http://www.w3.org/2000/svg"
 width="512.000000pt" height="512.000000pt" viewBox="0 0 512.000000 512.000000"
 preserveAspectRatio="xMidYMid meet">

<g transform="translate(0.000000,512.000000) scale(0.100000,-0.100000)"
fill="#000000" stroke="none">
<path d="M1910 4356 c-577 -103 -1013 -524 -1137 -1099 -25 -116 -25 -428 0
-545 40 -179 104 -334 200 -480 208 -316 509 -521 885 -604 145 -32 407 -32
551 0 226 51 409 135 570 262 l53 42 582 -580 c319 -319 591 -585 603 -591 93
-47 189 49 142 142 -6 12 -272 284 -591 603 l-580 581 50 64 c189 243 294 577
279 894 -10 210 -54 381 -145 561 -190 378 -535 644 -957 739 -97 22 -405 29
-505 11z m480 -225 c236 -54 426 -164 597 -346 183 -194 284 -416 313 -689 37
-344 -105 -721 -363 -963 -245 -228 -589 -347 -906 -314 -277 30 -499 129
-694 311 -236 221 -359 488 -374 810 -27 587 400 1109 985 1205 115 19 328 12
442 -14z"/>
</g>
</svg>
